<svg width="50" height="50" viewBox="0 0 50 50" fill="none" xmlns="http://www.w3.org/2000/svg">
<path d="M42 0H8C3.58172 0 0 3.58172 0 8V42C0 46.4183 3.58172 50 8 50H42C46.4183 50 50 46.4183 50 42V8C50 3.58172 46.4183 0 42 0Z" fill="#03ADD6"/>
<mask id="mask0_432_1030" style="mask-type:alpha" maskUnits="userSpaceOnUse" x="0" y="0" width="50" height="50">
<path d="M42 0H8C3.58172 0 0 3.58172 0 8V42C0 46.4183 3.58172 50 8 50H42C46.4183 50 50 46.4183 50 42V8C50 3.58172 46.4183 0 42 0Z" fill="#03ADD6"/>
</mask>
<g mask="url(#mask0_432_1030)">
<path fill-rule="evenodd" clip-rule="evenodd" d="M0 0V50H50L0 0Z" fill="#00C7F7"/>
</g>
<path d="M24.6954 19.255C21.691 19.255 19.2554 21.6905 19.2554 24.6949C19.2554 27.6993 21.691 30.1349 24.6954 30.1349C27.6998 30.1349 30.1354 27.6993 30.1354 24.6949C30.1354 21.6905 27.6998 19.255 24.6954 19.255Z" fill="white"/>
<path fill-rule="evenodd" clip-rule="evenodd" d="M24.6954 9.10034C25.2963 9.10034 25.7834 9.58745 25.7834 10.1883V12.0476C31.9258 12.5691 36.8213 17.4646 37.3427 23.6069H39.202C39.8029 23.6069 40.29 24.0941 40.29 24.6949C40.29 25.2958 39.8029 25.7829 39.202 25.7829H37.3427C36.8213 31.9253 31.9258 36.8208 25.7834 37.3422V39.2015C25.7834 39.8024 25.2963 40.2895 24.6954 40.2895C24.0945 40.2895 23.6074 39.8024 23.6074 39.2015V37.3422C17.4651 36.8208 12.5695 31.9253 12.0481 25.7829H10.1888C9.58794 25.7829 9.10083 25.2958 9.10083 24.6949C9.10083 24.094 9.58794 23.6069 10.1888 23.6069H12.0481C12.5695 17.4646 17.4651 12.5691 23.6074 12.0476V10.1883C23.6074 9.58745 24.0945 9.10034 24.6954 9.10034ZM14.1781 24.6949C14.1781 30.5035 18.8869 35.2122 24.6954 35.2122C30.504 35.2122 35.2127 30.5035 35.2127 24.6949C35.2127 18.8864 30.504 14.1777 24.6954 14.1777C18.8869 14.1777 14.1781 18.8864 14.1781 24.6949Z" fill="white"/>
</svg>
