<svg width="32" height="32" viewBox="0 0 32 32" fill="none" xmlns="http://www.w3.org/2000/svg">
<g clip-path="url(#clip0_432_141)">
<path d="M11.885 32H2.59473C2.02466 32 1.5625 31.5378 1.5625 30.9678C1.5625 30.3977 2.02466 29.9355 2.59473 29.9355H11.885C12.4551 29.9355 12.9172 30.3977 12.9172 30.9678C12.9172 31.5378 12.4551 32 11.885 32Z" fill="#00C7F7"/>
<path d="M9.82056 28.9034H2.59473C2.02466 28.9034 1.5625 28.441 1.5625 27.8709C1.5625 27.3008 2.02466 26.8387 2.59473 26.8387H9.82056C10.3906 26.8387 10.8528 27.3008 10.8528 27.8709C10.8528 28.441 10.3906 28.9034 9.82056 28.9034Z" fill="#00C7F7"/>
<path d="M5.69165 25.8063H2.59473C2.02466 25.8063 1.5625 25.3442 1.5625 24.7741C1.5625 24.204 2.02466 23.7419 2.59473 23.7419H5.69165C6.26172 23.7419 6.72388 24.204 6.72388 24.7741C6.72388 25.3442 6.26172 25.8063 5.69165 25.8063Z" fill="#00C7F7"/>
<path d="M17.0464 3.14893V2.06445H18.0786C18.6487 2.06445 19.1108 1.60229 19.1108 1.03223C19.1108 0.462158 18.6487 0 18.0786 0H13.9497C13.3796 0 12.9172 0.462158 12.9172 1.03223C12.9172 1.60229 13.3796 2.06445 13.9497 2.06445H14.9819V3.14893C7.49512 3.68213 1.5625 9.92798 1.5625 17.5483C1.5625 18.1184 2.02466 18.5806 2.59473 18.5806C3.16479 18.5806 3.62695 18.1184 3.62695 17.5483C3.62695 10.7183 9.18384 5.16138 16.0142 5.16138C22.8442 5.16138 28.4011 10.7183 28.4011 17.5483C28.4011 24.3787 22.8442 29.9355 16.0142 29.9355C15.4441 29.9355 14.9819 30.3977 14.9819 30.9678C14.9819 31.5378 15.4441 32 16.0142 32C23.9829 32 30.4658 25.5171 30.4658 17.5483C30.4658 9.92798 24.5332 3.68213 17.0464 3.14893Z" fill="#00C7F7"/>
<path d="M16.2212 19.4048C16.7747 19.3765 17.2935 19.1145 17.6436 18.6861L23.5594 11.4558C23.8953 11.0454 23.8653 10.4473 23.4905 10.0721C23.1143 9.69559 22.5171 9.66678 22.1067 10.0032L14.877 15.9185C14.448 16.2693 14.1861 16.7879 14.1577 17.3413C14.1299 17.8953 14.3386 18.438 14.7307 18.8308C14.7312 18.8313 14.7312 18.8313 14.7317 18.8318C15.1006 19.2007 15.6033 19.4075 16.1223 19.4075C16.1553 19.4073 16.188 19.4063 16.2212 19.4048Z" fill="#00C7F7"/>
</g>
<defs>
<clipPath id="clip0_432_141">
<rect width="32" height="32" fill="white"/>
</clipPath>
</defs>
</svg>
