<svg width="27" height="34" viewBox="0 0 27 34" fill="none" xmlns="http://www.w3.org/2000/svg">
<path d="M1.8 19.9667C1.8 23.7622 5.652 27.8439 13.5 32.0885C21.348 27.8439 25.2 23.7622 25.2 19.9667V5.06413C23.2756 4.78309 21.3775 4.34621 19.5246 3.75783L13.5 1.83416L7.4754 3.75962C5.62547 4.36136 3.72656 4.80262 1.8 5.07845V19.9667ZM0.8028 3.39636C2.88366 3.15607 4.93471 2.70702 6.9246 2.05606L13.2246 0.0429188C13.4037 -0.0143063 13.5963 -0.0143063 13.7754 0.0429188L20.0754 2.05606C22.0757 2.68946 24.1304 3.13872 26.2134 3.39815C26.431 3.42563 26.631 3.53117 26.7759 3.69494C26.9207 3.85871 27.0004 4.06943 27 4.28751V19.9667C27 24.6873 22.59 29.2862 13.9248 33.8941C13.7941 33.9636 13.6482 34 13.5 34C13.3518 34 13.2059 33.9636 13.0752 33.8941C4.41 29.2862 0 24.6873 0 19.9667V4.28751C3.34749e-05 4.06697 0.0819988 3.85421 0.230164 3.69007C0.37833 3.52592 0.582256 3.42197 0.8028 3.39815V3.39636ZM18.756 22.0497C19.7046 22.701 20.5812 23.177 21.3822 23.4758L20.781 24.8913C19.6704 24.4923 18.5634 23.8642 17.4582 23.0034C16.297 23.6441 14.9881 23.9734 13.6602 23.959C12.3231 23.9747 11.0071 23.6263 9.855 22.9515C8.71866 22.2835 7.80385 21.2994 7.2234 20.1206C6.606 18.9038 6.3 17.5366 6.3 16.0102C6.3 14.4946 6.6096 13.1131 7.2288 11.8694C7.8462 10.624 8.7282 9.67735 9.8694 9.02778C11.0381 8.37122 12.3611 8.03469 13.7034 8.05252C15.1308 8.05252 16.4178 8.38894 17.5644 9.06357C18.7011 9.72792 19.6134 10.7133 20.1852 11.8945C20.7864 13.1077 21.0852 14.4767 21.0852 15.9995C21.0852 17.2646 20.8926 18.4027 20.5074 19.4138C20.1285 20.4112 19.5301 21.3118 18.756 22.0497ZM14.2524 19.4496C15.4332 19.7788 16.407 20.2674 17.1738 20.9169C18.3762 19.8271 18.9774 18.188 18.9774 15.9995C18.9774 14.7558 18.765 13.6696 18.3384 12.7391C17.947 11.8486 17.2971 11.0947 16.4718 10.5739C15.6463 10.0588 14.6887 9.7916 13.7142 9.8044C12.1878 9.8044 10.9242 10.3233 9.9162 11.3612C8.9118 12.3991 8.4096 13.9488 8.4096 16.0102C8.4096 18.0091 8.9064 19.5444 9.9018 20.6145C10.8972 21.6828 12.168 22.2179 13.7142 22.2179C14.445 22.2179 15.1362 22.0819 15.7824 21.8081C15.1617 21.4041 14.4772 21.1065 13.7574 20.9277L14.2524 19.4496Z" fill="#00C7F7"/>
</svg>
