<svg width="41" height="41" viewBox="0 0 41 41" fill="none" xmlns="http://www.w3.org/2000/svg">
<g clip-path="url(#clip0_432_56)">
<path d="M8.62697 25.2574C9.4316 23.5798 12.3102 21.2513 15.0913 19.0014C16.6425 17.7475 18.1082 16.5619 19.0427 15.6275C19.2767 15.3917 19.6269 15.3165 19.9361 15.4276C20.5118 15.6361 20.8672 15.7966 21.1473 15.9213C21.5743 16.1126 21.7178 16.1775 22.2936 16.2356C22.5482 16.2612 22.777 16.3979 22.9188 16.6097C24.1267 18.4154 25.3772 18.2617 26.2125 17.9815C26.479 17.8927 26.5268 17.7782 26.5525 17.6689C26.7318 16.919 25.8315 15.173 24.6648 14.0062C21.8887 11.2285 20.4572 10.5332 17.4334 11.8845C14.0031 13.4185 10.5659 14.6195 10.5317 14.6315C10.0824 14.7869 9.59896 14.5512 9.44353 14.1053C9.28978 13.6594 9.52385 13.1725 9.96972 13.0171C10.0039 13.0052 13.3727 11.8281 16.7347 10.323C20.6519 8.57196 22.801 9.72509 25.8709 12.7967C27.0394 13.9652 28.6265 16.3295 28.2165 18.0635C28.0406 18.8015 27.5212 19.3482 26.7491 19.6027C24.8135 20.2417 23.0471 19.63 21.7317 17.8842C21.1884 17.8005 20.8929 17.6775 20.4487 17.4776C20.2882 17.4059 20.1002 17.3222 19.8508 17.2214C18.8736 18.1387 17.5548 19.2064 16.1659 20.3288C13.6547 22.36 10.8069 24.6629 10.1662 25.9954C9.85016 26.653 10.1902 27.0819 10.4208 27.2783C10.7591 27.5687 11.222 27.661 11.4731 27.485C11.7499 27.2953 12.1103 27.2834 12.3956 27.4542C12.6826 27.625 12.8432 27.9479 12.8073 28.2794C12.7492 28.8226 13.2464 29.1335 13.4616 29.2412C14.0083 29.5179 14.5789 29.4701 14.7924 29.2719C15.0316 29.0499 15.375 28.9849 15.6791 29.0977C15.9831 29.2121 16.195 29.4923 16.2257 29.8168C16.277 30.3772 16.6921 30.9153 17.2337 31.1254C17.4951 31.2245 17.8743 31.2843 18.2142 30.9733C18.4261 30.782 18.7199 30.7085 18.9949 30.7751C19.2734 30.8435 19.4972 31.0451 19.5946 31.3133C19.627 31.3987 19.7005 31.6037 20.5 31.6037C21.0689 31.6037 22.0922 31.2193 22.5927 30.8879C23.1923 30.4933 26.9524 27.6882 30.1999 24.9685C30.656 24.5841 31.4452 23.7607 32.1422 23.0329C32.7607 22.3872 33.3261 21.8013 33.6166 21.5553C33.9804 21.2478 34.5186 21.2939 34.8209 21.6561C35.125 22.0165 35.0806 22.5564 34.7201 22.8605C34.4553 23.0843 33.9428 23.6258 33.3774 24.2151C32.6154 25.0112 31.8279 25.8346 31.2983 26.2788C28.1174 28.9422 24.2941 31.8173 23.5322 32.3178C22.9035 32.7312 21.5489 33.312 20.4999 33.312C19.6577 33.312 19.0102 33.119 18.561 32.7415C17.9597 32.9755 17.2763 32.9772 16.6186 32.721C15.8413 32.4203 15.2024 31.8138 14.8402 31.0793C14.1672 31.2228 13.3967 31.122 12.6963 30.7701C12.0112 30.425 11.5159 29.8972 11.2699 29.2804C10.5899 29.3163 9.88956 29.0754 9.31044 28.5783C8.32972 27.7395 8.05986 26.4344 8.62697 25.2574Z" fill="#00C7F7"/>
<path d="M23.9168 11.1039H31.6043C32.0758 11.1039 32.4585 11.4866 32.4585 11.9581C32.4585 12.4296 32.0758 12.8123 31.6043 12.8123H23.9168C23.4453 12.8123 23.0626 12.4296 23.0626 11.9581C23.0626 11.4866 23.4453 11.1039 23.9168 11.1039Z" fill="#00C7F7"/>
<path d="M6.12436 23.4398C6.38918 23.0486 6.91874 22.941 7.30992 23.2075L9.80747 24.885C10.1987 25.1481 10.3029 25.6794 10.0398 26.0706C9.8741 26.3149 9.60415 26.4482 9.32909 26.4482C9.16677 26.4482 9.00109 26.402 8.85414 26.303L6.35659 24.6254C5.96549 24.3623 5.8613 23.8311 6.12436 23.4398Z" fill="#00C7F7"/>
<path d="M11.4271 27.516C12.0387 27.0342 14.7737 24.2343 16.465 22.4713C16.7913 22.1296 17.3328 22.1176 17.6728 22.4456C18.0145 22.772 18.0247 23.3135 17.6984 23.6535C17.2593 24.1113 13.3866 28.1481 12.4863 28.8588C12.3309 28.9818 12.1429 29.0416 11.9584 29.0416C11.7073 29.0416 11.4562 28.9289 11.2854 28.7153C10.9932 28.3462 11.0563 27.8081 11.4271 27.516Z" fill="#00C7F7"/>
<path d="M14.8402 29.2294C15.8635 28.4111 18.4345 25.6794 19.0154 25.0474C19.3366 24.6989 19.8747 24.6784 20.2232 24.9961C20.5701 25.3156 20.5939 25.8571 20.2745 26.2039C20.2437 26.2364 17.1755 29.5489 15.908 30.5637C15.7508 30.6883 15.5612 30.7498 15.375 30.7498C15.1255 30.7498 14.8762 30.6388 14.707 30.4304C14.4131 30.0613 14.4729 29.5232 14.8402 29.2294Z" fill="#00C7F7"/>
<path d="M18.24 30.9497C19.4581 29.923 21.9505 27.27 22.4374 26.7489C22.7602 26.4038 23.3018 26.385 23.6452 26.7079C23.9903 27.0308 24.0074 27.5706 23.6862 27.9157C22.9857 28.6656 20.6009 31.194 19.3419 32.2566C19.1813 32.3915 18.9865 32.4581 18.7918 32.4581C18.5492 32.4581 18.3066 32.354 18.1375 32.1541C17.8334 31.7919 17.8795 31.2538 18.24 30.9497Z" fill="#00C7F7"/>
<path d="M31.0165 9.62954C32.4806 8.24235 38.335 7.79303 40.0946 7.68884C40.3371 7.67691 40.5609 7.75715 40.7317 7.91947C40.9026 8.08003 41 8.30553 41 8.54128V23.9163C41 24.3878 40.6173 24.7705 40.1458 24.7705H35.0208C34.6518 24.7705 34.3238 24.5331 34.2094 24.1811C34.0847 23.7984 31.1412 14.7648 30.7534 10.3231C30.7312 10.0634 30.8269 9.80715 31.0165 9.62954ZM35.6444 23.0622H39.2917V9.45697C36.5464 9.6739 33.5841 10.1454 32.5079 10.6682C32.9606 14.4094 35.0089 21.0565 35.6444 23.0622Z" fill="#00C7F7"/>
<path d="M0.854218 9.39569C7.56118 9.39569 11.2819 11.1126 11.4374 11.1843C11.6594 11.2885 11.8252 11.4816 11.8935 11.7156C11.9618 11.9497 11.9277 12.2008 11.7996 12.4092C10.7438 14.109 7.43818 23.5492 6.80268 25.852C6.70018 26.2227 6.36361 26.479 5.97923 26.479H0.854218C0.382718 26.479 2.47955e-05 26.0963 2.47955e-05 25.6248V10.2498C2.47955e-05 9.77662 0.382718 9.39569 0.854218 9.39569ZM1.70834 24.7707H5.34028C6.15004 22.133 8.54174 15.2552 9.87592 12.4126C8.57249 11.9702 5.77247 11.2099 1.70834 11.1143V24.7707Z" fill="#00C7F7"/>
</g>
<defs>
<clipPath id="clip0_432_56">
<rect width="41" height="41" fill="white" transform="matrix(-1 0 0 1 41 0)"/>
</clipPath>
</defs>
</svg>
