<svg width="119" height="45" viewBox="0 0 119 45" fill="none" xmlns="http://www.w3.org/2000/svg">
<path d="M4.95477 1.00473C1.87676 1.00473 0.146484 2.59613 0.146484 5.84765V39.3661C0.146484 42.4076 1.70236 44 4.77762 44H38.4376C41.5136 44 43.0715 42.4872 43.0715 39.3661V5.84765C43.0715 2.67536 41.5136 1.00473 38.3414 1.00473C38.3414 1.00473 4.9442 0.994084 4.95477 1.00473Z" fill="#00C7F7" stroke="#EEEEEE" stroke-width="0.253777"/>
<path d="M19.1618 22.65C18.7722 22.3146 18.1845 22.3586 17.8491 22.7482C17.5138 23.1378 17.5578 23.7255 17.9474 24.0609L19.1618 22.65ZM27.5461 32.3231C27.9357 32.6585 28.5234 32.6145 28.8588 32.2249C29.1942 31.8352 29.1502 31.2475 28.7606 30.9122L27.5461 32.3231ZM25.4748 24.1868C25.8669 23.8543 25.9152 23.2669 25.5827 22.8749C25.2501 22.4828 24.6628 22.4345 24.2707 22.767L25.4748 24.1868ZM14.672 30.9077C14.2799 31.2402 14.2316 31.8276 14.5641 32.2197C14.8967 32.6117 15.484 32.66 15.8761 32.3275L14.672 30.9077ZM21.6899 17.3105C21.8715 16.8296 21.6289 16.2925 21.148 16.1109C20.6671 15.9292 20.13 16.1718 19.9483 16.6528L21.6899 17.3105ZM12.3118 36.8727C12.1302 37.3537 12.3728 37.8908 12.8537 38.0724C13.3347 38.254 13.8718 38.0114 14.0534 37.5305L12.3118 36.8727ZM23.5854 16.6528C23.4038 16.1718 22.8667 15.9292 22.3858 16.1109C21.9049 16.2925 21.6623 16.8296 21.8439 17.3105L23.5854 16.6528ZM29.4804 37.5305C29.662 38.0114 30.1991 38.254 30.68 38.0724C31.1609 37.8908 31.4036 37.3537 31.2219 36.8727L29.4804 37.5305ZM21.6351 16.8287C21.6329 17.3427 22.0478 17.7613 22.5619 17.7635C23.0759 17.7657 23.4945 17.3508 23.4967 16.8367L21.6351 16.8287ZM23.5434 5.99034C23.5456 5.47627 23.1307 5.05774 22.6166 5.05552C22.1025 5.05331 21.684 5.46825 21.6818 5.98232L23.5434 5.99034ZM19.9974 16.8287C19.9952 17.3427 20.4101 17.7613 20.9242 17.7635C21.4383 17.7657 21.8568 17.3508 21.859 16.8367L19.9974 16.8287ZM21.9057 5.99034C21.9079 5.47627 21.493 5.05774 20.9789 5.05552C20.4649 5.05331 20.0463 5.46825 20.0441 5.98232L21.9057 5.99034ZM16.4259 7.03006C15.9118 7.02785 15.4933 7.44279 15.4911 7.95686C15.4889 8.47093 15.9038 8.88946 16.4179 8.89167L16.4259 7.03006ZM27.2643 8.9384C27.7783 8.94061 28.1969 8.52567 28.1991 8.0116C28.2013 7.49753 27.7863 7.079 27.2723 7.07678L27.2643 8.9384ZM16.4259 12.0938C15.9118 12.0916 15.4933 12.5065 15.4911 13.0206C15.4889 13.5347 15.9038 13.9532 16.4179 13.9554L16.4259 12.0938ZM27.2643 14.0021C27.7783 14.0043 28.1969 13.5894 28.1991 13.0753C28.2013 12.5613 27.7863 12.1427 27.2723 12.1405L27.2643 14.0021ZM17.9474 24.0609L27.5461 32.3231L28.7606 30.9122L19.1618 22.65L17.9474 24.0609ZM24.2707 22.767L14.672 30.9077L15.8761 32.3275L25.4748 24.1868L24.2707 22.767ZM19.9483 16.6528L12.3118 36.8727L14.0534 37.5305L21.6899 17.3105L19.9483 16.6528ZM21.8439 17.3105L29.4804 37.5305L31.2219 36.8727L23.5854 16.6528L21.8439 17.3105ZM23.4967 16.8367L23.5434 5.99034L21.6818 5.98232L21.6351 16.8287L23.4967 16.8367ZM21.859 16.8367L21.9057 5.99034L20.0441 5.98232L19.9974 16.8287L21.859 16.8367ZM16.4179 8.89167L27.2643 8.9384L27.2723 7.07678L16.4259 7.03006L16.4179 8.89167ZM16.4179 13.9554L27.2643 14.0021L27.2723 12.1405L16.4259 12.0938L16.4179 13.9554Z" fill="white"/>
<path opacity="0.5" d="M16.9131 7.89739C9.92171 13.2092 2.69727 7.8042 2.69727 7.8042M16.9131 12.5145C9.92171 17.8263 2.69727 12.4213 2.69727 12.4213M26.5118 7.89739C33.5032 13.2092 40.7277 7.8042 40.7277 7.8042M26.5118 12.5145C33.5032 17.8263 40.7277 12.4213 40.7277 12.4213" stroke="white" stroke-width="1.28116"/>
<path d="M51.8118 9.71959V7.93107H55.8081C55.6311 7.279 55.2911 6.75269 54.7881 6.35214C54.285 5.94227 53.7028 5.73733 53.0415 5.73733C52.1099 5.73733 51.2576 6.082 50.4844 6.77132L49.2967 5.2902C50.3494 4.30279 51.5929 3.80908 53.0275 3.80908C54.5086 3.80908 55.7289 4.29813 56.6884 5.27623C57.6478 6.25433 58.1276 7.45133 58.1276 8.86725C58.1276 10.2925 57.6478 11.4941 56.6884 12.4722C55.7382 13.441 54.5459 13.9254 53.1113 13.9254C52.1984 13.9254 51.4206 13.7903 50.7779 13.5202C50.1351 13.2501 49.5529 12.8355 49.0312 12.2766L50.3587 10.8374C50.7872 11.2287 51.2064 11.5221 51.6162 11.7177C52.0261 11.904 52.5012 11.9972 53.0415 11.9972C53.7308 11.9972 54.3223 11.7876 54.816 11.3684C55.319 10.9399 55.6544 10.3903 55.822 9.71959H51.8118Z" fill="white"/>
<path d="M61.3469 3.97676H68.3333V13.7577H66.1815V5.91898H63.359V6.65954C63.359 8.56916 63.2425 10.0503 63.0097 11.1029C62.7861 12.1555 62.4554 12.8821 62.0176 13.2827C61.5798 13.6832 60.9696 13.8835 60.1871 13.8835C59.7493 13.8835 59.3721 13.8416 59.0553 13.7577L59.1951 11.9832C59.3255 12.0018 59.4373 12.0111 59.5304 12.0111C59.8471 12.0111 60.1033 11.9459 60.2989 11.8155C60.5039 11.6758 60.6902 11.401 60.8578 10.9911C61.0348 10.5813 61.1606 9.9711 61.2351 9.16068C61.3096 8.34094 61.3469 7.28832 61.3469 6.00282V3.97676Z" fill="white"/>
<path d="M70.6771 13.7577V3.97676H78.0548V5.89103H72.815V7.87518H77.426V9.78946H72.815V11.8435H78.1247V13.7577H70.6771Z" fill="white"/>
<path d="M80.0378 13.7577V3.97676H82.1897V8.25244L86.158 3.97676H88.7569L84.7746 8.12669L88.9385 13.7577H86.3536L83.3215 9.59384L82.1897 10.7676V13.7577H80.0378Z" fill="white"/>
<path d="M92.5221 13.7577V5.9609H89.5459V3.97676H97.6502V5.9609H94.674V13.7577H92.5221Z" fill="white"/>
<path d="M99.3051 13.7577V3.97676H103.301C104.456 3.97676 105.369 4.28882 106.04 4.91294C106.711 5.53706 107.046 6.36145 107.046 7.38613C107.046 8.47601 106.673 9.3237 105.928 9.92919C105.183 10.5254 104.237 10.8234 103.092 10.8234H101.457V13.7577H99.3051ZM101.457 8.90917H103.162C103.693 8.90917 104.107 8.76944 104.405 8.48998C104.713 8.21053 104.866 7.84723 104.866 7.4001C104.866 6.92502 104.713 6.56173 104.405 6.31022C104.098 6.04939 103.669 5.91898 103.12 5.91898H101.457V8.90917Z" fill="white"/>
<path d="M117.106 12.4583C116.119 13.4364 114.88 13.9254 113.389 13.9254C111.899 13.9254 110.66 13.4364 109.672 12.4583C108.694 11.4802 108.205 10.2832 108.205 8.86725C108.205 7.46065 108.699 6.2683 109.686 5.2902C110.683 4.30279 111.927 3.80908 113.417 3.80908C114.908 3.80908 116.142 4.29813 117.12 5.27623C118.107 6.25433 118.601 7.45133 118.601 8.86725C118.601 10.2738 118.103 11.4709 117.106 12.4583ZM111.293 11.047C111.852 11.6432 112.56 11.9413 113.417 11.9413C114.274 11.9413 114.978 11.6478 115.527 11.061C116.077 10.4648 116.352 9.73357 116.352 8.86725C116.352 8.01025 116.072 7.28366 115.513 6.68749C114.954 6.09131 114.246 5.79322 113.389 5.79322C112.532 5.79322 111.829 6.09131 111.279 6.68749C110.73 7.27435 110.455 8.00093 110.455 8.86725C110.455 9.72425 110.734 10.4508 111.293 11.047Z" fill="white"/>
<path d="M49.7998 27.1231V17.3421H52.1192L54.6902 21.478L57.2613 17.3421H59.5807V27.1231H57.4429V20.7375L54.6902 24.9154H54.6344L51.9097 20.7794V27.1231H49.7998Z" fill="white"/>
<path d="M70.398 25.8236C69.4106 26.8017 68.1717 27.2907 66.6812 27.2907C65.1908 27.2907 63.9519 26.8017 62.9645 25.8236C61.9864 24.8455 61.4973 23.6485 61.4973 22.2326C61.4973 20.826 61.991 19.6336 62.9784 18.6555C63.9752 17.6681 65.2187 17.1744 66.7092 17.1744C68.1996 17.1744 69.4339 17.6635 70.412 18.6416C71.3994 19.6197 71.8931 20.8167 71.8931 22.2326C71.8931 23.6392 71.3947 24.8362 70.398 25.8236ZM64.5853 24.4123C65.1442 25.0085 65.8522 25.3066 66.7092 25.3066C67.5662 25.3066 68.2695 25.0132 68.8191 24.4263C69.3687 23.8301 69.6435 23.0989 69.6435 22.2326C69.6435 21.3756 69.364 20.649 68.8051 20.0528C68.2462 19.4566 67.5382 19.1585 66.6812 19.1585C65.8242 19.1585 65.1209 19.4566 64.5713 20.0528C64.0217 20.6397 63.7469 21.3663 63.7469 22.2326C63.7469 23.0896 64.0264 23.8162 64.5853 24.4123Z" fill="white"/>
<path d="M73.8019 27.1231V17.3421H75.9537V21.2126H79.922V17.3421H82.0738V27.1231H79.922V23.1967H75.9537V27.1231H73.8019Z" fill="white"/>
<path d="M86.6956 27.1231V19.3262H83.7194V17.3421H91.8236V19.3262H88.8474V27.1231H86.6956Z" fill="white"/>
<path d="M92.6401 27.1231L96.832 17.2722H98.8161L103.008 27.1231H100.758L99.8641 24.9293H95.7281L94.8339 27.1231H92.6401ZM96.4967 23.029H99.0956L97.7961 19.8572L96.4967 23.029Z" fill="white"/>
<path d="M112.231 27.1231H110.093V24.5241L108.793 23.1268L106.041 27.1231H103.47L107.34 21.5759L103.609 17.3421H106.166L110.093 21.9112V17.3421H112.231V21.9112L116.157 17.3421H118.714L114.983 21.5759L118.854 27.1231H116.283L113.516 23.1268L112.231 24.5241V27.1231Z" fill="white"/>
<path d="M54.3828 40.6561C52.9483 40.6561 51.7513 40.1717 50.7918 39.2029C49.8417 38.2248 49.3666 37.0231 49.3666 35.5979C49.3666 34.182 49.8463 32.985 50.8058 32.0069C51.7653 31.0288 52.9856 30.5397 54.4667 30.5397C55.3144 30.5397 56.027 30.6795 56.6045 30.9589C57.1821 31.2291 57.7317 31.6203 58.2533 32.1326L56.9678 33.6138C56.5486 33.2318 56.1527 32.957 55.7801 32.7894C55.4168 32.6124 54.9744 32.5239 54.4527 32.5239C53.633 32.5239 52.953 32.822 52.4127 33.4181C51.8817 34.005 51.6162 34.7316 51.6162 35.5979C51.6162 36.4549 51.8817 37.1815 52.4127 37.7777C52.953 38.3738 53.633 38.6719 54.4527 38.6719C54.9744 38.6719 55.4262 38.5788 55.8081 38.3925C56.19 38.2062 56.5952 37.9174 57.0237 37.5261L58.3931 38.9933C57.8621 39.5615 57.2845 39.9807 56.6604 40.2509C56.0456 40.521 55.2864 40.6561 54.3828 40.6561Z" fill="white"/>
<path d="M60.1156 40.4884V30.7074H67.4933V32.6217H62.2535V34.6058H66.8645V36.5201H62.2535V38.5741H67.5632V40.4884H60.1156Z" fill="white"/>
<path d="M69.4763 40.4884V30.7074H73.4726C74.6277 30.7074 75.5406 31.0195 76.2113 31.6436C76.882 32.2677 77.2173 33.0921 77.2173 34.1168C77.2173 35.2067 76.8447 36.0543 76.0995 36.6598C75.3543 37.256 74.4088 37.5541 73.263 37.5541H71.6282V40.4884H69.4763ZM71.6282 35.6398H73.3329C73.8638 35.6398 74.2783 35.5001 74.5764 35.2206C74.8838 34.9412 75.0375 34.5779 75.0375 34.1307C75.0375 33.6557 74.8838 33.2924 74.5764 33.0409C74.269 32.78 73.8405 32.6496 73.2909 32.6496H71.6282V35.6398Z" fill="white"/>
<path d="M78.8098 40.4884V30.7074H83.3509C84.4781 30.7074 85.3304 30.9962 85.908 31.5737C86.3551 32.0208 86.5787 32.5844 86.5787 33.2644C86.5787 34.1866 86.1502 34.8899 85.2932 35.3743C85.8987 35.6072 86.3551 35.9146 86.6625 36.2965C86.9699 36.6691 87.1236 37.1722 87.1236 37.8056C87.1236 38.6812 86.7976 39.3473 86.1455 39.8037C85.4934 40.2602 84.5992 40.4884 83.4627 40.4884H78.8098ZM80.9057 34.6617H82.8898C83.9238 34.6617 84.4408 34.3077 84.4408 33.5998C84.4408 33.2737 84.3197 33.0269 84.0775 32.8592C83.8353 32.6822 83.486 32.5937 83.0296 32.5937H80.9057V34.6617ZM80.9057 38.6021H83.4627C84.4781 38.6021 84.9858 38.2388 84.9858 37.5122C84.9858 36.8042 84.4548 36.4502 83.3929 36.4502H80.9057V38.6021Z" fill="white"/>
<path d="M97.3193 30.7074V40.4884H95.1954V34.0749L90.9197 40.4884H88.8937V30.7074H91.0176V37.1209L95.3212 30.7074H97.3193Z" fill="white"/>
<path d="M104.257 40.6561C102.822 40.6561 101.625 40.1717 100.666 39.2029C99.7154 38.2248 99.2404 37.0231 99.2404 35.5979C99.2404 34.182 99.7201 32.985 100.68 32.0069C101.639 31.0288 102.859 30.5397 104.34 30.5397C105.188 30.5397 105.901 30.6795 106.478 30.9589C107.056 31.2291 107.605 31.6203 108.127 32.1326L106.842 33.6138C106.422 33.2318 106.026 32.957 105.654 32.7894C105.291 32.6124 104.848 32.5239 104.326 32.5239C103.507 32.5239 102.827 32.822 102.286 33.4181C101.755 34.005 101.49 34.7316 101.49 35.5979C101.49 36.4549 101.755 37.1815 102.286 37.7777C102.827 38.3738 103.507 38.6719 104.326 38.6719C104.848 38.6719 105.3 38.5788 105.682 38.3925C106.064 38.2062 106.469 37.9174 106.897 37.5261L108.267 38.9933C107.736 39.5615 107.158 39.9807 106.534 40.2509C105.919 40.521 105.16 40.6561 104.257 40.6561Z" fill="white"/>
</svg>
