<svg width="50" height="50" viewBox="0 0 50 50" fill="none" xmlns="http://www.w3.org/2000/svg">
<path d="M42 0H8C3.58172 0 0 3.58172 0 8V42C0 46.4183 3.58172 50 8 50H42C46.4183 50 50 46.4183 50 42V8C50 3.58172 46.4183 0 42 0Z" fill="#03ADD6"/>
<mask id="mask0_432_1039" style="mask-type:alpha" maskUnits="userSpaceOnUse" x="0" y="0" width="50" height="50">
<path d="M42 0H8C3.58172 0 0 3.58172 0 8V42C0 46.4183 3.58172 50 8 50H42C46.4183 50 50 46.4183 50 42V8C50 3.58172 46.4183 0 42 0Z" fill="#03ADD6"/>
</mask>
<g mask="url(#mask0_432_1039)">
<path fill-rule="evenodd" clip-rule="evenodd" d="M0 0V50H50L0 0Z" fill="#00C7F7"/>
</g>
<path fill-rule="evenodd" clip-rule="evenodd" d="M32.5659 7.28687H17.9159C16.5159 7.28687 15.3838 8.43328 15.3838 9.84756V39.8726C15.3838 41.2833 16.5159 42.4297 17.9159 42.4297H32.5624C33.9624 42.4297 35.0981 41.2833 35.0981 39.8726V9.84756C35.1017 8.43685 33.9659 7.28687 32.5659 7.28687ZM25.2445 39.9047C24.3517 39.9047 23.6266 39.1726 23.6266 38.2726C23.6266 37.369 24.3517 36.6404 25.2445 36.6404C26.1338 36.6404 26.8624 37.3726 26.8624 38.2726C26.8624 39.1726 26.1338 39.9047 25.2445 39.9047ZM33.2016 34.3083H17.2838V11.6083H33.2016V34.3083Z" fill="white"/>
</svg>
