<svg width="21" height="19" viewBox="0 0 21 19" fill="none" xmlns="http://www.w3.org/2000/svg">
<path fill-rule="evenodd" clip-rule="evenodd" d="M4.78754 11.0196C4.83131 11.0344 4.87549 11.0448 4.91963 11.0512C4.96777 11.1644 5.02996 11.3107 5.10252 11.4818C5.27959 11.8994 5.51818 12.4643 5.76446 13.0535C6.2667 14.2552 6.77332 15.4939 6.88521 15.8485C7.02372 16.2868 7.17013 16.5848 7.32996 16.7883C7.4126 16.8935 7.50819 16.9853 7.62003 17.0549C7.67633 17.0899 7.7358 17.1186 7.79788 17.14C7.80062 17.141 7.80335 17.1419 7.80608 17.1428C8.1261 17.2636 8.41786 17.2133 8.60053 17.1518C8.69827 17.1188 8.77735 17.0791 8.8334 17.0469C8.86198 17.0304 8.88612 17.0151 8.90538 17.0021L8.90992 16.9991L11.7361 15.2366L15.0007 17.7394C15.0488 17.7763 15.1014 17.8073 15.157 17.8316C15.5492 18.0027 15.929 18.0624 16.2862 18.0136C16.6429 17.9649 16.926 17.8151 17.1368 17.6464C17.3432 17.4813 17.4832 17.2963 17.5703 17.1589C17.6148 17.0887 17.6482 17.0266 17.6718 16.9791C17.6836 16.9552 17.6931 16.9346 17.7005 16.9181L17.7099 16.8963L17.7135 16.8877L17.715 16.8841L17.7156 16.8824L17.7163 16.8808C17.7334 16.8379 17.7466 16.7935 17.7556 16.7482L20.7358 1.72274C20.7453 1.67469 20.7501 1.62581 20.7501 1.57682C20.7501 1.13681 20.5843 0.718409 20.1945 0.464515C19.8613 0.247518 19.4901 0.238177 19.2556 0.255982C19.0025 0.275189 18.7688 0.337656 18.612 0.387572C18.5304 0.41355 18.4619 0.438614 18.4126 0.457735C18.3878 0.467345 18.3675 0.47559 18.3523 0.481878L18.341 0.486665L1.62725 7.04321L1.62509 7.04399C1.61444 7.04786 1.60076 7.05297 1.58451 7.05929C1.55215 7.07189 1.50878 7.08965 1.45813 7.1126C1.35935 7.15738 1.22077 7.22734 1.07856 7.32473C0.851371 7.48031 0.328881 7.90641 0.416862 8.60971C0.487051 9.17078 0.871431 9.51537 1.10562 9.68107C1.23421 9.77206 1.35638 9.83713 1.44535 9.87949C1.48662 9.89913 1.57232 9.93395 1.6095 9.94905L1.61889 9.95287L4.78754 11.0196ZM18.9259 1.86786L18.9236 1.86888C18.9152 1.8725 18.9069 1.87596 18.8984 1.87928L2.1644 8.44378C2.15566 8.44721 2.14686 8.45047 2.138 8.45357L2.12869 8.4571C2.11798 8.46127 2.09996 8.46858 2.07734 8.47884C2.06451 8.48465 2.05112 8.49099 2.03747 8.4978C2.05622 8.50836 2.07417 8.51754 2.09012 8.52513C2.10543 8.53242 2.11711 8.5374 2.1235 8.54003L5.26613 9.59802C5.32365 9.61738 5.37727 9.64304 5.42649 9.67397L15.8033 3.59948L15.813 3.59374C15.8205 3.58927 15.8305 3.58353 15.8424 3.5768C15.866 3.56345 15.8984 3.54568 15.937 3.52603C16.009 3.48938 16.1243 3.43497 16.2541 3.39485C16.3444 3.36692 16.6109 3.28823 16.899 3.38064C17.0768 3.43767 17.2609 3.56028 17.3807 3.76798C17.4401 3.87117 17.4718 3.97483 17.4872 4.06972C17.528 4.2192 17.5215 4.36681 17.4896 4.49424C17.4208 4.76875 17.228 4.98287 17.0525 5.14665C16.9021 5.28706 14.9567 7.16292 13.0376 9.01468C12.0805 9.93813 11.1333 10.8525 10.4252 11.5359L9.96017 11.9849L15.8321 16.4867C15.9668 16.5349 16.0464 16.5325 16.0832 16.5274C16.1271 16.5214 16.163 16.5045 16.1997 16.4752C16.2407 16.4424 16.2766 16.398 16.3034 16.3557L16.3045 16.354L19.195 1.78102C19.1521 1.79133 19.1087 1.80361 19.0669 1.81691C19.0196 1.83198 18.9805 1.84634 18.9547 1.85637C18.9418 1.86134 18.9326 1.86511 18.9276 1.86719L18.9259 1.86786ZM10.4646 14.2618L9.29315 13.3636L9.00928 15.1693L10.4646 14.2618ZM8.21846 11.5814L9.38344 10.4567C10.0915 9.77321 11.0389 8.85879 11.9961 7.93524L12.9686 6.997L6.44853 10.8138L6.48351 10.8963C6.66121 11.3154 6.90087 11.8827 7.14845 12.4751C7.33358 12.918 7.52717 13.3844 7.70349 13.8162L7.98653 12.0158C8.01381 11.8422 8.09861 11.692 8.21846 11.5814Z" fill="white"/>
</svg>
