<svg width="45" height="42" viewBox="0 0 45 42" fill="none" xmlns="http://www.w3.org/2000/svg">
<rect y="0.762207" width="45" height="41.2376" fill="#0DBD3E"/>
<path d="M19.9648 16.1699C20.1494 16.1748 20.354 16.1846 20.5487 16.613C20.6778 16.8982 20.8953 17.4232 21.0725 17.8509C21.2103 18.1837 21.3238 18.4575 21.3522 18.5136C21.417 18.6416 21.457 18.7893 21.3721 18.9616C21.3621 18.9819 21.3527 19.0013 21.3436 19.02C21.2755 19.16 21.2271 19.2597 21.1127 19.3899C21.0656 19.4435 21.0166 19.5022 20.9677 19.5607C20.8818 19.6636 20.7965 19.7658 20.7233 19.838C20.5936 19.9659 20.4588 20.1039 20.6085 20.3599C20.7583 20.6159 21.2823 21.4579 22.0559 22.1373C22.8875 22.8712 23.6107 23.1805 23.9763 23.3368C24.0473 23.3672 24.1047 23.3918 24.1469 23.4126C24.4065 23.5406 24.5612 23.5209 24.7109 23.3486C24.8607 23.1762 25.3597 22.6001 25.5344 22.3441C25.7041 22.0881 25.8787 22.1275 26.1184 22.2161C26.3579 22.3047 27.6355 22.9251 27.895 23.0531C27.9463 23.0784 27.9943 23.1012 28.0387 23.1224C28.2193 23.2082 28.342 23.2665 28.3941 23.3535C28.4589 23.4618 28.4589 23.9739 28.2444 24.5746C28.0248 25.1752 26.9667 25.7513 26.4876 25.7956C26.4422 25.7999 26.3971 25.8053 26.3506 25.8108C25.9116 25.8635 25.3542 25.9303 23.3684 25.1555C20.9215 24.2018 19.3062 21.8354 18.9797 21.357C18.9539 21.3192 18.9362 21.2932 18.9267 21.2806L18.9211 21.2733C18.7726 21.0762 17.8636 19.8707 17.8636 18.6269C17.8636 17.4368 18.455 16.8173 18.7248 16.5347C18.7419 16.5168 18.7577 16.5002 18.772 16.4849C19.0115 16.2289 19.291 16.1649 19.4657 16.1649C19.6404 16.1649 19.8151 16.1649 19.9648 16.1699Z" fill="white"/>
<path fill-rule="evenodd" clip-rule="evenodd" d="M13.2035 30.3314C13.121 30.6284 13.3938 30.9025 13.6945 30.8247L18.3428 29.6213C19.8101 30.409 21.462 30.8275 23.1439 30.8275H23.1489C28.6836 30.8275 33.1953 26.3815 33.1953 20.9163C33.1953 18.2673 32.1521 15.7759 30.2557 13.9049C28.3592 12.034 25.8389 11 23.1488 11C17.6142 11 13.1025 15.4461 13.1025 20.9114C13.1019 22.65 13.5649 24.3582 14.445 25.8645L13.2035 30.3314ZM15.904 26.2629C16.0118 25.8752 15.9579 25.4608 15.7546 25.1127C15.0079 23.8348 14.6153 22.3855 14.6159 20.9114C14.6159 16.2816 18.4428 12.5 23.1488 12.5C25.4389 12.5 27.5754 13.377 29.1881 14.9681C30.799 16.5574 31.6819 18.6661 31.6819 20.9163C31.6819 25.5459 27.855 29.3275 23.1489 29.3275H23.1439C21.7148 29.3275 20.3105 28.9718 19.0636 28.3023C18.7261 28.1211 18.3317 28.0738 17.9603 28.17L15.1734 28.8915L15.904 26.2629Z" fill="white"/>
</svg>
