<svg width="37" height="37" viewBox="0 0 37 37" fill="none" xmlns="http://www.w3.org/2000/svg">
<path d="M35.916 13.0439H32.6641C32.0654 13.0439 31.5801 13.5293 31.5801 14.1279C31.5801 14.7266 32.0654 15.2119 32.6641 15.2119H35.916C36.5146 15.2119 37 14.7266 37 14.1279C37 13.5293 36.5146 13.0439 35.916 13.0439Z" fill="#00C7F7"/>
<path d="M18.5 3.28809C12.5229 3.28809 7.66016 8.15084 7.66016 14.1279C7.66016 17.6784 9.44302 20.0551 10.8756 21.9646C11.8646 23.283 12.7188 24.4216 12.7188 25.5668V32.6279C12.7188 33.2266 13.2041 33.7119 13.8027 33.7119H23.1973C23.7958 33.7119 24.2812 33.2266 24.2812 32.6279V25.5668C24.2812 24.4216 25.1353 23.283 26.1244 21.9646C27.557 20.0551 29.3398 17.6784 29.3398 14.1279C29.3398 8.15084 24.4771 3.28809 18.5 3.28809ZM14.8867 31.5439V27.8584H22.1133V31.5439H14.8867ZM24.3902 20.6636C23.2193 22.2245 22.1133 23.6988 22.1133 25.5668V25.6904H19.5601V19.0475L21.2647 17.9235C21.7645 17.5939 21.9025 16.9216 21.573 16.4218C21.2433 15.922 20.5711 15.7842 20.0713 16.1136L18.4829 17.161L16.938 16.1196C16.4418 15.7851 15.768 15.9163 15.4333 16.4127C15.0987 16.9091 15.2298 17.5827 15.7262 17.9174L17.3923 19.0404V25.6904H14.8867V25.5668C14.8867 23.6988 13.7807 22.2245 12.6098 20.6636C11.2422 18.8407 9.82812 16.9556 9.82812 14.1279C9.82812 9.34626 13.7183 5.45605 18.5 5.45605C23.2817 5.45605 27.1719 9.34626 27.1719 14.1279C27.1719 16.9556 25.7578 18.8407 24.3902 20.6636Z" fill="#00C7F7"/>
<path d="M35.2252 20.4134L32.696 18.968C32.1763 18.671 31.5141 18.8516 31.217 19.3714C30.92 19.8912 31.1006 20.5533 31.6203 20.8503L34.1496 22.2957C34.3192 22.3926 34.504 22.4387 34.6864 22.4387C35.0627 22.4387 35.4285 22.2424 35.6285 21.8923C35.9256 21.3725 35.745 20.7104 35.2252 20.4134Z" fill="#00C7F7"/>
<path d="M31.8758 9.33716L35.1277 7.89185C35.6748 7.64875 35.9211 7.00812 35.678 6.46107C35.4349 5.91395 34.7942 5.66767 34.2472 5.91077L30.9953 7.35608C30.4482 7.59918 30.2019 8.23981 30.445 8.78686C30.6245 9.1909 31.0208 9.43089 31.4361 9.43089C31.5832 9.43089 31.7327 9.40076 31.8758 9.33716Z" fill="#00C7F7"/>
<path d="M5.41992 14.1279C5.41992 13.5293 4.93451 13.0439 4.33594 13.0439H1.08398C0.485336 13.0439 0 13.5293 0 14.1279C0 14.7266 0.485336 15.2119 1.08398 15.2119H4.33594C4.93451 15.2119 5.41992 14.7266 5.41992 14.1279Z" fill="#00C7F7"/>
<path d="M4.30413 18.9681L1.77483 20.4134C1.2551 20.7104 1.07451 21.3725 1.37152 21.8924C1.57155 22.2426 1.93736 22.4388 2.31364 22.4388C2.49597 22.4388 2.68083 22.3926 2.85051 22.2957L5.3798 20.8504C5.89954 20.5534 6.08006 19.8914 5.78312 19.3714C5.48596 18.8515 4.82372 18.671 4.30413 18.9681Z" fill="#00C7F7"/>
<path d="M6.00469 7.35608L2.75274 5.91077C2.20576 5.66781 1.56505 5.91395 1.32195 6.46107C1.07885 7.00812 1.3252 7.64875 1.87225 7.89185L5.12421 9.33716C5.26729 9.40075 5.41674 9.43089 5.56387 9.43089C5.97911 9.43089 6.37541 9.19082 6.55499 8.78686C6.79809 8.23974 6.55174 7.59918 6.00469 7.35608Z" fill="#00C7F7"/>
</svg>
