<svg width="45" height="41" viewBox="0 0 45 41" fill="none" xmlns="http://www.w3.org/2000/svg">
<rect width="45" height="41" fill="#03ADD6"/>
<path fill-rule="evenodd" clip-rule="evenodd" d="M14.788 17.4054C16.9968 22.215 20.9273 26.0389 25.8134 28.1108L25.8288 28.1174L26.7728 28.5381C27.9748 29.0736 29.3876 28.6933 30.1582 27.6267L31.7331 25.447C31.8293 25.3139 31.8045 25.1287 31.6767 25.0256L28.9273 22.8076C28.7906 22.6973 28.5897 22.723 28.4851 22.8641L27.4151 24.308C27.1552 24.6587 26.6859 24.7805 26.2882 24.6005C22.6347 22.9471 19.6987 20.0112 18.0453 16.3576C17.8654 15.96 17.9872 15.4907 18.3379 15.2308L19.7818 14.1607C19.9229 14.0562 19.9485 13.8552 19.8383 13.7185L17.6199 10.9688C17.5168 10.841 17.3318 10.8162 17.1986 10.9123L15.0072 12.4943C13.9335 13.2694 13.5554 14.6941 14.1034 15.8996L14.7873 17.4038L14.788 17.4054ZM25.0819 29.8141C19.7728 27.5605 15.5026 23.4045 13.1026 18.1773L13.1012 18.1741L12.4159 16.6668C11.5025 14.6576 12.1327 12.2831 13.9221 10.9913L16.1136 9.40928C17.0456 8.73649 18.341 8.91025 19.0627 9.80485L21.281 12.5546C22.0529 13.5113 21.8731 14.9182 20.8855 15.6501L20.0581 16.2632C21.4557 18.9751 23.6707 21.1901 26.3826 22.5878L26.9958 21.7604C27.7277 20.7727 29.1345 20.593 30.0913 21.3648L32.8406 23.5828C33.7355 24.3048 33.909 25.6007 33.2357 26.5326L31.6608 28.7123C30.3764 30.49 28.0217 31.1239 26.0184 30.2314L25.0819 29.8141Z" fill="white"/>
</svg>
